<svg xmlns="http://www.w3.org/2000/svg" viewBox="0 0 1024 1024">
	<path d="M 55.500 0.961 C 54.400 1.416, 51.475 2.377, 49 3.097 C 32.606 7.869, 19.090 21.645, 12.300 40.500 C 10.579 45.282, 10.487 64.531, 10.207 481 C 9.982 815.244, 10.191 917.895, 11.106 922.500 C 13.668 935.386, 21.511 948.319, 31.319 955.832 C 39.618 962.189, 43.262 963.868, 55.500 966.974 C 61.050 968.382, 678.950 968.382, 684.500 966.974 C 696.738 963.868, 700.382 962.189, 708.681 955.832 C 718.124 948.598, 725.564 936.758, 728.572 924.175 C 729.936 918.468, 730.766 813, 729.447 813 C 729.143 813, 724.755 815.378, 719.697 818.284 C 704.987 826.736, 692.685 832.358, 679 836.881 C 665.596 841.312, 663.130 841.991, 649.750 844.935 C 624.687 850.449, 584.527 850.423, 560 844.877 C 548.429 842.261, 546.335 841.757, 544 841.025 C 542.625 840.594, 538.125 839.206, 534 837.941 C 529.875 836.675, 526.072 835.271, 525.550 834.820 C 525.027 834.369, 524.028 834, 523.330 834 C 522.631 834, 519.458 832.831, 516.280 831.403 C 487.144 818.312, 468.724 805.777, 447.418 784.540 C 432.239 769.410, 428.895 765.414, 418.971 750.557 C 399.884 721.980, 389.634 695.154, 382.844 656 C 381.113 646.022, 381.054 600.844, 382.759 592.250 C 383.442 588.813, 384.510 583.188, 385.134 579.750 C 386.425 572.639, 389.359 561.084, 391.799 553.500 C 404.324 514.580, 429.086 478.800, 462 452.066 C 478.691 438.509, 501.344 424.724, 517 418.597 C 519.475 417.628, 522.850 416.235, 524.500 415.500 C 530.857 412.670, 545.057 408.272, 555.500 405.897 C 587.866 398.539, 622.433 398.267, 653 405.130 C 668.291 408.563, 675.317 410.777, 694.206 418.114 C 698.749 419.878, 713.338 427.577, 721.314 432.419 C 725.464 434.939, 729.117 437, 729.430 437 C 729.744 437, 729.984 349.813, 729.964 243.250 C 729.926 33.720, 730.206 44.684, 724.566 32.364 C 718.285 18.644, 705.283 6.960, 692 3.100 C 689.525 2.380, 686.466 1.389, 685.203 0.896 C 682.291 -0.240, 58.251 -0.175, 55.500 0.961 M 250.794 221.639 C 240.747 226.939, 240.982 243.353, 251.178 248.439 C 255.940 250.814, 484.060 250.814, 488.822 248.439 C 499.237 243.243, 499.237 226.757, 488.822 221.561 C 484.298 219.304, 255.078 219.380, 250.794 221.639 M 112.898 346.289 C 110.524 347.888, 108.935 350.149, 107.625 353.789 C 105.791 358.884, 105.791 359.116, 107.625 364.211 C 108.935 367.851, 110.524 370.112, 112.898 371.711 L 116.296 374 368.994 374 C 595.995 374, 622.011 373.841, 624.822 372.439 C 635.237 367.243, 635.237 350.757, 624.822 345.561 C 622.011 344.159, 595.995 344, 368.994 344 L 116.296 344 112.898 346.289 M 587.500 429.145 C 566.734 431.735, 544.028 437.061, 536.764 441.047 C 535.809 441.571, 534.582 442, 534.039 442 C 530.851 442, 505.632 454.782, 496.032 461.263 C 454.725 489.151, 427.240 527.005, 414.901 573 C 405.999 606.184, 406.061 648.554, 415.052 677.500 C 418.066 687.202, 419.724 691.903, 424.114 703.206 C 428.491 714.475, 441.431 735.468, 452.032 748.500 C 462.873 761.827, 480.500 777.567, 497.296 788.918 C 502.259 792.272, 526.991 805.176, 530.507 806.246 C 531.603 806.580, 536.550 808.285, 541.500 810.035 C 572.553 821.017, 605.940 824.090, 638.500 818.963 C 660.403 815.513, 690.006 804.714, 704.680 794.819 C 706.979 793.268, 709.153 792, 709.511 792 C 710.443 792, 725.751 780.737, 730.500 776.558 C 732.700 774.622, 734.907 773.030, 735.403 773.019 C 737.245 772.980, 786 820.172, 786 821.994 C 786 822.661, 782.048 827.383, 777.217 832.487 C 767.489 842.766, 764.662 847.523, 762.856 856.655 C 761.450 863.767, 762.670 871.317, 766.337 878.192 C 768.213 881.710, 899.971 1013.339, 907.117 1018.836 C 913.781 1023.961, 918.692 1024.998, 923.928 1022.386 C 927.591 1020.559, 1007.777 940.891, 1011.551 935.330 C 1015.616 929.340, 1014.212 922.030, 1007.812 915.862 C 1005.991 914.106, 975.116 883.638, 939.202 848.156 C 903.289 812.674, 872.464 782.572, 870.702 781.263 C 860.800 773.905, 849.366 772.407, 835.888 776.702 C 831.366 778.143, 828.719 780.153, 819.415 789.210 C 813.319 795.144, 807.916 800, 807.408 800 C 806.223 800, 757 750.780, 757 749.596 C 757 749.106, 758.499 746.860, 760.332 744.603 C 763.858 740.261, 776 722.421, 776 721.582 C 776 721.310, 777.267 718.931, 778.815 716.294 C 792.115 693.642, 801.932 654.937, 801.972 625 C 801.982 617.098, 799.953 596.234, 798.515 589.457 C 795.430 574.920, 791.780 561.974, 788.801 555 C 788.213 553.625, 787.372 551.600, 786.932 550.500 C 785.230 546.246, 776.884 529.280, 774.388 525 C 760.694 501.517, 735.953 475.752, 712 460.029 C 675.921 436.347, 627.019 424.216, 587.500 429.145 M 112.898 470.289 C 110.524 471.888, 108.935 474.149, 107.625 477.789 C 105.791 482.884, 105.791 483.116, 107.625 488.211 C 108.935 491.851, 110.524 494.112, 112.898 495.711 L 116.296 498 233.994 498 C 363.949 498, 355.425 498.425, 360.209 491.707 C 363.366 487.273, 363.366 478.727, 360.209 474.293 C 355.425 467.575, 363.949 468, 233.994 468 L 116.296 468 112.898 470.289 M 584 483.112 C 570.847 485.737, 567.761 486.511, 559.500 489.251 C 537.554 496.532, 523.622 505.255, 506.476 522.448 C 483.361 545.626, 471.201 568.777, 465.480 600.500 C 463.803 609.797, 463.530 634.460, 465.019 642.201 C 467.577 655.503, 468.454 659.070, 471.237 667.500 C 480.691 696.134, 498.386 720.329, 524.092 739.771 C 527.168 742.097, 529.935 744, 530.240 744 C 530.546 744, 533.758 745.800, 537.380 748 C 541.001 750.200, 544.202 752, 544.493 752 C 544.784 752, 546.929 752.850, 549.261 753.889 C 562.146 759.633, 570.782 762.094, 586.426 764.484 C 632.540 771.527, 681.813 753.290, 711.110 718.336 C 727.153 699.195, 738.866 675.745, 742.995 654.500 C 743.636 651.200, 744.575 646.613, 745.081 644.307 C 746.540 637.651, 746.157 608.554, 744.491 599.500 C 738.827 568.729, 726.605 545.414, 704.597 523.400 C 682.634 501.432, 657.833 488.831, 626 483.467 C 616.616 481.886, 591.220 481.671, 584 483.112 M 112.898 594.289 C 110.524 595.888, 108.935 598.149, 107.625 601.789 C 105.791 606.884, 105.791 607.116, 107.625 612.211 C 108.935 615.851, 110.524 618.112, 112.898 619.711 L 116.296 622 213.994 622 C 321.834 622, 315.459 622.378, 320.209 615.707 C 323.366 611.273, 323.366 602.727, 320.209 598.293 C 315.459 591.622, 321.834 592, 213.994 592 L 116.296 592 112.898 594.289 M 112.898 718.287 C 104.452 723.973, 104.452 736.027, 112.898 741.713 L 116.296 744 229.198 744 C 351.699 744, 344.573 744.323, 349.983 738.532 C 353.584 734.679, 353.584 725.321, 349.983 721.468 C 344.573 715.677, 351.699 716, 229.198 716 L 116.296 716 112.898 718.287 M 112.898 842.287 C 104.452 847.973, 104.452 860.027, 112.898 865.713 L 116.296 868 257 868 L 397.704 868 401.088 865.720 C 405.767 862.567, 407.155 859.486, 406.709 853.242 C 406.436 849.409, 405.680 847.284, 403.917 845.397 C 398.556 839.659, 407.898 840, 256.198 840 L 116.296 840 112.898 842.287" stroke="none" fill="#000" fill-rule="evenodd"/>
</svg>