<?xml version="1.0" encoding="UTF-8"?>
<svg xmlns="http://www.w3.org/2000/svg" xmlns:xlink="http://www.w3.org/1999/xlink" version="1.1" viewBox="0 0 50 50">
  <defs>
    <style>
      .cls-1 {
        fill: url(#Degradado_sin_nombre);
      }

      .cls-2 {
        fill: url(#Degradado_sin_nombre-2);
      }

      .cls-3 {
        fill: url(#Degradado_sin_nombre-5);
      }

      .cls-4 {
        fill: url(#Degradado_sin_nombre-4);
      }

      .cls-5 {
        fill: url(#Degradado_sin_nombre-7);
      }

      .cls-6 {
        fill: url(#Degradado_sin_nombre-3);
      }

      .cls-7 {
        fill: url(#Degradado_sin_nombre-6);
      }

      .cls-8 {
        fill: url(#Degradado_sin_nombre-8);
      }
    </style>
    <linearGradient id="Degradado_sin_nombre" data-name="Degradado sin nombre" x1="0" y1="7.8" x2="50" y2="7.8" gradientUnits="userSpaceOnUse">
      <stop offset="0" stop-color="#15afe2"/>
      <stop offset="1" stop-color="#9eb342"/>
    </linearGradient>
    <linearGradient id="Degradado_sin_nombre-2" data-name="Degradado sin nombre" x1="0" y1="46.8" y2="46.8" xlink:href="#Degradado_sin_nombre"/>
    <linearGradient id="Degradado_sin_nombre-3" data-name="Degradado sin nombre" x1="48.9" y1="49.5" y2="49.5" xlink:href="#Degradado_sin_nombre"/>
    <linearGradient id="Degradado_sin_nombre-4" data-name="Degradado sin nombre" x1="4.8" y1="26.1" x2="12.1" y2="26.1" xlink:href="#Degradado_sin_nombre"/>
    <linearGradient id="Degradado_sin_nombre-5" data-name="Degradado sin nombre" x1="37.9" y1="26.1" x2="45.2" y2="26.1" xlink:href="#Degradado_sin_nombre"/>
    <linearGradient id="Degradado_sin_nombre-6" data-name="Degradado sin nombre" x1="20.6" y1="29.8" x2="29.4" y2="29.8" xlink:href="#Degradado_sin_nombre"/>
    <linearGradient id="Degradado_sin_nombre-7" data-name="Degradado sin nombre" x1="2.9" y1="38.8" x2="14" y2="38.8" xlink:href="#Degradado_sin_nombre"/>
    <linearGradient id="Degradado_sin_nombre-8" data-name="Degradado sin nombre" x1="36" y1="38.8" x2="47.2" y2="38.8" xlink:href="#Degradado_sin_nombre"/>
  </defs>
  <!-- Generator: Adobe Illustrator 28.7.1, SVG Export Plug-In . SVG Version: 1.2.0 Build 142)  -->
  <g>
    <g id="Capa_1">
      <g>
        <path class="cls-1" d="M50,14.6c-.4.8-1.1,1.1-2,1.1-15.4,0-30.7,0-46.1,0-1.3,0-1.9-.5-1.9-1.8,0-.8,0-1.6,0-2.3,0-.8.4-1.3,1.1-1.6C8.9,6.6,16.7,3.3,24.4.1c0,0,.1,0,.2-.1.3,0,.5,0,.8,0,0,0,0,0,.2.1,7.7,3.2,15.4,6.4,23.1,9.6.6.2,1,.6,1.3,1.1v3.7ZM25,8.3c-2.9,0-5.7,0-8.6,0-.7,0-1.2.3-1.5.9-.4,1,.3,2,1.5,2,3.7,0,7.4,0,11.1,0,2.1,0,4.1,0,6.2,0,.7,0,1.2-.3,1.5-.9.5-1-.3-2.1-1.4-2.1-2.9,0-5.8,0-8.7,0Z"/>
        <path class="cls-2" d="M1.1,50c-.8-.4-1.1-1.1-1.1-2,0-.8,0-1.6,0-2.4,0-1.1.8-1.9,1.9-1.9,10.6,0,21.2,0,31.8,0s9.5,0,14.2,0c1,0,1.5.4,1.9,1.2,0,0,0,.1.1.2v3.9c-.2.5-.6.8-1.1,1.1H1.1Z"/>
        <path class="cls-6" d="M48.9,50c.5-.2.8-.6,1.1-1.1v1.1h-1.1Z"/>
        <path class="cls-4" d="M12.1,33.7h-7.2v-15.1h7.2v15.1Z"/>
        <path class="cls-3" d="M45.2,18.6v15.1h-7.3v-15.1h7.3Z"/>
        <path class="cls-7" d="M20.6,33c0-1.1.6-1.7,1.4-1.8.8,0,1.5.6,1.6,1.5,0,.9.7,1.5,1.5,1.5.8,0,1.4-.7,1.4-1.5,0-.8-.6-1.4-1.5-1.5-2.1,0-3.8-1.5-4.2-3.5-.4-2.1.5-4,2.5-4.9.3-.2.3-.4.3-.7,0-.7.2-1.3.9-1.6.9-.4,1.9.2,2,1.2,0,.1,0,.3,0,.4,0,.3,0,.5.4.6,1.6.8,2.5,2.1,2.5,3.9,0,.9-.6,1.5-1.4,1.6-.8,0-1.5-.6-1.5-1.4,0-.9-.7-1.5-1.5-1.5-.8,0-1.4.7-1.4,1.4,0,.8.6,1.5,1.5,1.5,2.1,0,3.8,1.5,4.2,3.5.4,2.1-.6,4-2.5,4.9-.2.1-.3.2-.3.5,0,.2,0,.3,0,.5,0,.8-.7,1.4-1.5,1.4-.8,0-1.4-.6-1.4-1.4,0-.6-.2-.9-.7-1.2-1.4-.8-2.1-2-2.2-3.5Z"/>
        <path class="cls-5" d="M14,41H2.9c0-1.1,0-2.2,0-3.2,0-.7.7-1.1,1.4-1.1,2.8,0,5.6,0,8.3,0,.7,0,1.3.5,1.4,1.2,0,1,0,2.1,0,3.2Z"/>
        <path class="cls-8" d="M47.1,41h-11.1c0-1.1,0-2.2,0-3.2,0-.7.7-1.1,1.4-1.1,2.8,0,5.6,0,8.3,0,.7,0,1.4.5,1.4,1.2,0,1,0,2.1,0,3.2Z"/>
      </g>
    </g>
  </g>
</svg>