<?xml version="1.0" encoding="UTF-8"?>
<svg xmlns="http://www.w3.org/2000/svg" xmlns:xlink="http://www.w3.org/1999/xlink" version="1.1" viewBox="0 0 50 50">
  <defs>
    <style>
      .cls-1 {
        fill: url(#Degradado_sin_nombre_4-2);
      }

      .cls-2 {
        fill: url(#Degradado_sin_nombre_4-8);
      }

      .cls-3 {
        fill: url(#Degradado_sin_nombre_4-7);
      }

      .cls-4 {
        fill: url(#Degradado_sin_nombre_4-6);
      }

      .cls-5 {
        fill: url(#Degradado_sin_nombre_4-5);
      }

      .cls-6 {
        fill: url(#Degradado_sin_nombre_4-4);
      }

      .cls-7 {
        fill: url(#Degradado_sin_nombre_4-3);
      }

      .cls-8 {
        fill: url(#Degradado_sin_nombre_4);
      }
    </style>
    <linearGradient id="Degradado_sin_nombre_4" data-name="Degradado sin nombre 4" x1="0" y1="18.65" x2="42.88" y2="18.65" gradientUnits="userSpaceOnUse">
      <stop offset="0" stop-color="#0078c4"/>
      <stop offset="1" stop-color="#78b500"/>
    </linearGradient>
    <linearGradient id="Degradado_sin_nombre_4-2" data-name="Degradado sin nombre 4" x1="0" y1="3.29" x2="42.94" y2="3.29" xlink:href="#Degradado_sin_nombre_4"/>
    <linearGradient id="Degradado_sin_nombre_4-3" data-name="Degradado sin nombre 4" x1="21.05" y1="33.77" x2="50" y2="33.77" xlink:href="#Degradado_sin_nombre_4"/>
    <linearGradient id="Degradado_sin_nombre_4-4" data-name="Degradado sin nombre 4" x1="26.38" y1="27.43" x2="37.35" y2="27.43" xlink:href="#Degradado_sin_nombre_4"/>
    <linearGradient id="Degradado_sin_nombre_4-5" data-name="Degradado sin nombre 4" x1="29.38" y1="24.15" x2="34.34" y2="24.15" xlink:href="#Degradado_sin_nombre_4"/>
    <linearGradient id="Degradado_sin_nombre_4-6" data-name="Degradado sin nombre 4" x1="28.54" y1="33.97" x2="35.35" y2="33.97" xlink:href="#Degradado_sin_nombre_4"/>
    <linearGradient id="Degradado_sin_nombre_4-7" data-name="Degradado sin nombre 4" x1="28.87" y1="31.44" x2="30.24" y2="31.44" xlink:href="#Degradado_sin_nombre_4"/>
    <linearGradient id="Degradado_sin_nombre_4-8" data-name="Degradado sin nombre 4" x1="33.53" y1="31.45" x2="34.85" y2="31.45" xlink:href="#Degradado_sin_nombre_4"/>
  </defs>
  <!-- Generator: Adobe Illustrator 28.6.0, SVG Export Plug-In . SVG Version: 1.2.0 Build 709)  -->
  <g>
    <g id="Capa_1">
      <g>
        <path class="cls-8" d="M19.3,29c-.2,0-.39,0-.58,0-4.97,0-9.93,0-14.9,0-2.41,0-3.81-1.41-3.81-3.83,0-5.43,0-10.85,0-16.28,0-.19,0-.38,0-.6h42.88v13.57c-4.06-5.44-9.34-7.55-15.81-4.92-5.2,2.11-7.6,6.39-7.77,12.05ZM4.61,21.28c-.26,1.45.24,2.46,1.99,2.43,3.41-.06,6.82-.02,10.22-.02.26,0,.53,0,.79-.05.57-.1,1.05-.57,1.12-1.13.05-.39,0-.8,0-1.22H4.61ZM32.16,15.58c2.07,0,4.14,0,6.2,0,.7,0,1.06-.29,1.07-.82,0-.54-.37-.87-1.04-.87-4.14,0-8.27,0-12.41,0-.66,0-1.05.34-1.05.86,0,.53.39.83,1.07.83,2.05,0,4.1,0,6.15,0ZM10.71,13.47v6.04h1.91v-6.04h-1.91ZM8.96,13.45c-1.04,0-2.05-.06-3.05.03-.38.03-.82.34-1.08.64-.42.48-.3,1.12-.25,1.73h4.38v-2.41ZM14.39,15.85h4.38c0-.38.02-.73,0-1.08-.06-.68-.56-1.27-1.24-1.3-1.03-.05-2.07-.01-3.13-.01v2.39ZM4.59,17.61v1.91h4.37v-1.91h-4.37ZM14.39,17.6v1.92h4.35v-1.92h-4.35Z"/>
        <path class="cls-1" d="M42.93,6.55H0C0,6.03,0,5.53,0,5.02c0-.64-.02-1.28.05-1.91C.24,1.35,1.64.08,3.42.08c3.8-.02,7.6,0,11.4,0,8.08,0,16.16.04,24.24-.02,2.32-.02,4.02,1.62,3.88,3.89-.05.86,0,1.72,0,2.61Z"/>
        <path class="cls-7" d="M38,37.81c-6.01,3.7-12.74.97-15.44-3.67-2.77-4.75-1.65-10.82,2.68-14.21,4.35-3.41,10.54-3.06,14.47.81,3.98,3.91,4.55,10.56.39,15.26.96,1.22,1.92,2.45,2.88,3.67,1.18-.37,1.22-.36,2.02.67,1.52,1.93,3.04,3.86,4.56,5.79.62.79.58,1.25-.2,1.88-.69.55-1.38,1.1-2.08,1.64-.61.47-1.13.41-1.61-.19-1.68-2.12-3.35-4.24-5.02-6.37-.45-.58-.4-.97.19-1.65-.95-1.2-1.9-2.42-2.85-3.63ZM31.95,37.65c2.67,0,4.77-1.78,5.1-4.42.11-.85.06-1.73.04-2.6,0-.4.1-.66.43-.92,2.11-1.67,2.05-4.15-.12-5.75-.35-.26-.77-.44-1.12-.7-.16-.11-.32-.31-.36-.5-.15-.67-.22-1.36-.36-2.03-.15-.74-.66-.99-1.34-.67-.32.15-.63.32-.95.46-.78.33-1.58.4-2.38.14-.43-.14-.85-.35-1.26-.54-.81-.39-1.29-.17-1.46.7-.08.42-.2.83-.21,1.25-.02.74-.33,1.19-1.03,1.52-.53.24-.99.68-1.39,1.12-.8.88-1.08,1.94-.72,3.1.27.9.88,1.57,1.64,2.08.27.18.37.37.36.69-.03.65-.01,1.31,0,1.96.02,2.95,2.2,5.11,5.15,5.1Z"/>
        <path class="cls-6" d="M27.69,25.12c0,.46,0,.84,0,1.23,0,.52.23.91.72,1.05.71.21,1.42.42,2.15.51,1.43.17,2.86.12,4.25-.3,1.08-.32,1.23-.54,1.24-1.64,0-.26,0-.52,0-.8,1.39.5,1.74,1.96.72,2.95-.94.91-2.13,1.29-3.39,1.47-1.71.25-3.38.14-4.98-.56-.38-.17-.76-.38-1.09-.63-1.35-1.04-1.22-2.4.38-3.29Z"/>
        <path class="cls-5" d="M34.17,21.99c.06,1.3.14,2.5.17,3.69,0,.13-.2.36-.34.4-1.41.31-2.84.3-4.25,0-.15-.03-.37-.25-.36-.38.04-1.2.11-2.39.19-3.69,1.56.63,3.01.67,4.6-.02Z"/>
        <path class="cls-4" d="M28.54,32.97c.34.23.62.42.9.6.6.39.98.33,1.41-.23.34-.43.66-.87,1.02-1.35.36.48.69.93,1.03,1.37.41.53.8.59,1.37.23.33-.21.65-.43.97-.64.03-.02.07-.02.1-.03-.03,1.55-1.42,2.94-3.04,3.02-2.06.1-3.55-1.05-3.77-2.97Z"/>
        <path class="cls-3" d="M30.24,31.32c-.14.19-.24.33-.36.49-.35-.24-.67-.46-1-.68.01-.03.02-.05.03-.08.41.08.83.17,1.33.27Z"/>
        <path class="cls-2" d="M33.86,31.83c-.13-.19-.22-.33-.33-.51.46-.1.87-.18,1.27-.27.02.03.04.06.05.09-.31.22-.63.43-1,.69Z"/>
      </g>
    </g>
  </g>
</svg>