<?xml version="1.0" encoding="UTF-8"?>
<svg xmlns="http://www.w3.org/2000/svg" xmlns:xlink="http://www.w3.org/1999/xlink" version="1.1" viewBox="0 0 50 50">
  <defs>
    <style>
      .cls-1 {
        fill: url(#Degradado_sin_nombre_4-2);
      }

      .cls-2 {
        fill: url(#Degradado_sin_nombre_4-6);
      }

      .cls-3 {
        fill: url(#Degradado_sin_nombre_4-5);
      }

      .cls-4 {
        fill: url(#Degradado_sin_nombre_4-4);
      }

      .cls-5 {
        fill: url(#Degradado_sin_nombre_4-3);
      }

      .cls-6 {
        fill: url(#Degradado_sin_nombre_4);
      }
    </style>
    <linearGradient id="Degradado_sin_nombre_4" data-name="Degradado sin nombre 4" x1="10.83" y1="35.84" x2="39.17" y2="35.84" gradientUnits="userSpaceOnUse">
      <stop offset="0" stop-color="#0078c4"/>
      <stop offset="1" stop-color="#78b500"/>
    </linearGradient>
    <linearGradient id="Degradado_sin_nombre_4-2" data-name="Degradado sin nombre 4" x1="33.19" y1="14.68" x2="46.28" y2="14.68" xlink:href="#Degradado_sin_nombre_4"/>
    <linearGradient id="Degradado_sin_nombre_4-3" data-name="Degradado sin nombre 4" x1="3.72" y1="20.09" x2="16.77" y2="20.09" xlink:href="#Degradado_sin_nombre_4"/>
    <linearGradient id="Degradado_sin_nombre_4-4" data-name="Degradado sin nombre 4" x1="18.47" y1="12.91" x2="31.53" y2="12.91" xlink:href="#Degradado_sin_nombre_4"/>
    <linearGradient id="Degradado_sin_nombre_4-5" data-name="Degradado sin nombre 4" x1="18.89" y1="30.62" x2="22.47" y2="30.62" xlink:href="#Degradado_sin_nombre_4"/>
    <linearGradient id="Degradado_sin_nombre_4-6" data-name="Degradado sin nombre 4" x1="27.52" y1="41.01" x2="31.06" y2="41.01" xlink:href="#Degradado_sin_nombre_4"/>
  </defs>
  <!-- Generator: Adobe Illustrator 28.6.0, SVG Export Plug-In . SVG Version: 1.2.0 Build 709)  -->
  <g>
    <g id="Capa_1">
      <g>
        <path class="cls-6" d="M39.17,35.83c0,7.81-6.34,14.16-14.16,14.17-7.83,0-14.22-6.39-14.18-14.19.04-7.84,6.36-14.14,14.18-14.14,7.82,0,14.16,6.35,14.16,14.16ZM30.99,28.69c-.21-.22-.38-.51-.63-.62-.42-.19-.76.04-1.02.41-3.28,4.57-6.56,9.14-9.84,13.71-.36.5-.31.95.08,1.24.39.28.87.17,1.21-.3,3.29-4.58,6.58-9.16,9.87-13.75.12-.17.19-.38.33-.69ZM20.69,27.32c-1.85,0-3.34,1.49-3.33,3.32.01,1.81,1.5,3.31,3.31,3.31,1.83,0,3.33-1.5,3.33-3.34,0-1.82-1.48-3.29-3.3-3.3ZM32.58,41.02c0-1.84-1.47-3.31-3.3-3.3-1.82,0-3.29,1.5-3.28,3.32.01,1.81,1.46,3.25,3.28,3.27,1.83.01,3.3-1.45,3.29-3.29Z"/>
        <path class="cls-1" d="M36.46,8.15c-.88,0-1.71.02-2.52-.01-.25-.01-.5-.18-.75-.27.09-.24.13-.52.28-.7,1.91-2.28,3.84-4.54,5.76-6.8.41-.48.6-.48,1,0,1.95,2.29,3.9,4.58,5.83,6.88.13.16.26.48.19.6-.1.17-.39.29-.61.3-.85.03-1.71.01-2.62.01v.63c0,6.42,0,12.83,0,19.25,0,1.08-.25,1.32-1.34,1.32-.59,0-1.18-.03-1.76.01-.43.03-.58-.18-.79-.5-.75-1.19-1.57-2.33-2.33-3.51-.16-.25-.32-.56-.32-.84-.02-5.22-.01-10.45-.01-15.67v-.69Z"/>
        <path class="cls-5" d="M13.53,18.96c0,1.15,0,2.24,0,3.32,0,.82.18,1.7-.05,2.45-.22.72-.9,1.29-1.33,1.95-.49.76-.91,1.56-1.4,2.33-.1.16-.34.32-.52.33-.7.04-1.41.02-2.11.01-.85,0-1.16-.3-1.16-1.15,0-2.85,0-5.71,0-8.56,0-.2,0-.4,0-.64-.14-.01-.27-.04-.4-.04-.72,0-1.44.02-2.16-.01-.23-.01-.55-.12-.66-.29-.08-.12.07-.47.21-.64,1.37-1.64,2.75-3.26,4.13-4.88.55-.65,1.11-1.31,1.66-1.96.4-.47.61-.47,1-.01,1.93,2.28,3.87,4.55,5.79,6.84.15.18.27.49.21.69-.04.14-.4.24-.63.25-.84.03-1.68.01-2.6.01Z"/>
        <path class="cls-4" d="M28.28,13.54v6.85c-2.2-.43-4.35-.44-6.56,0v-6.85c-.75,0-1.45,0-2.15,0-.15,0-.31.03-.45,0-.23-.06-.55-.1-.63-.26-.07-.15.05-.48.19-.65,1.09-1.32,2.21-2.62,3.31-3.92.84-.98,1.67-1.97,2.51-2.95.38-.44.59-.45.97,0,1.96,2.3,3.91,4.6,5.86,6.91.13.15.24.46.17.61-.07.15-.37.25-.58.26-.85.03-1.71.01-2.65.01Z"/>
        <path class="cls-3" d="M20.65,32.41c-.99-.01-1.79-.83-1.77-1.81.03-.97.82-1.75,1.78-1.75.98,0,1.8.81,1.79,1.79,0,.99-.82,1.78-1.81,1.77Z"/>
        <path class="cls-2" d="M31.06,41.02c0,.99-.76,1.75-1.74,1.76-.99,0-1.8-.79-1.79-1.77,0-.96.79-1.76,1.75-1.77.98-.01,1.78.79,1.78,1.78Z"/>
      </g>
    </g>
  </g>
</svg>