<?xml version="1.0" encoding="UTF-8"?>
<svg xmlns="http://www.w3.org/2000/svg" version="1.1" viewBox="0 0 2279.4 421.4">
  <defs>
    <style>
      .cls-1 {
        fill: #00c473;
      }

      .cls-1, .cls-2, .cls-3, .cls-4, .cls-5 {
        fill-rule: evenodd;
      }

      .cls-2 {
        fill: red;
      }

      .cls-4 {
        fill: #1d1dea;
      }

      .cls-5 {
        fill: #c626b6;
      }
    </style>
  </defs>
  <!-- Generator: Adobe Illustrator 28.7.1, SVG Export Plug-In . SVG Version: 1.2.0 Build 142)  -->
  <g>
    <g id="Capa_1">
      <g>
        <path class="cls-3" d="M704.3,10.7v342c0,52.5-41.2,67.7-78.4,67.7s-77.9-15.3-77.9-67.7V10.7h59.8v336.9c0,20.3,6.2,24.8,18.6,24.8s18.1-4.5,18.1-24.8V10.7h59.8Z"/>
        <path class="cls-3" d="M863,10.7l16.9,115.7c13.6,75.2,23.1,151.2,28.2,227.5h2.3v-21.5c.6-38.9-1.7-78.5-1.7-117.4V10.7h49.1v401.8h-88.6l-28.2-200.9c-9.6-49.7-13-94.8-18.1-142.2h-2.3c0,17.5,1.1,35,1.7,51.9v291.2h-49.1V10.7h89.8Z"/>
        <rect x="1028.1" y="10.7" width="59.8" height="401.8"/>
        <path class="cls-3" d="M1205.8,10.7l18.6,167.6c4.5,39.5,9,117.9,13.6,158h1.1c3.4-48.5,7.9-96.5,11.9-144.5l18.1-181.2h59.8l-47.4,401.8h-90.3l-45.2-401.8h59.8Z"/>
        <rect x="1391.5" y="10.7" width="59.8" height="401.8"/>
        <path class="cls-3" d="M1578.9,347.6c0,20.3,6.2,24.8,18.7,24.8s18.1-4.5,18.1-24.8v-42.3c0-56.4-96.5-111.7-96.5-177.2v-57.6c0-52.5,41.2-67.7,77.9-67.7s78.5,15.2,78.5,67.7v84.7h-59.8v-79.6c0-20.3-6.2-24.8-18.1-24.8s-18.7,4.5-18.7,24.8v49.7c0,28.8,96.5,115.7,96.5,156.3v71.1c0,52.5-41.2,67.7-78.5,67.7s-77.9-15.3-77.9-67.7v-92.6h59.8v87.5h0Z"/>
        <rect x="1742.9" y="10.7" width="59.8" height="401.8"/>
        <path class="cls-3" d="M1929.3,347.6c0,20.3,6.2,24.8,18.7,24.8s18.1-4.5,18.1-24.8V75.6c0-20.3-6.2-24.8-18.1-24.8s-18.7,4.5-18.7,24.8v272ZM1869.5,352.7V70.5c0-52.5,41.2-67.7,77.9-67.7s78.5,15.2,78.5,67.7v282.2c0,52.5-41.2,67.7-78.5,67.7s-77.9-15.3-77.9-67.7h0Z"/>
        <path class="cls-3" d="M2184.6,10.7l17,115.7c13.6,75.2,23,151.2,28.2,227.5h2.3v-21.5c.6-38.9-1.7-78.5-1.7-117.4V10.7h49.1v401.8h-88.6l-28.2-200.9c-9.6-49.7-13-94.8-18.1-142.2h-2.3c0,17.5,1.1,35,1.7,51.9v291.2h-49.1V10.7h89.7Z"/>
        <path class="cls-2" d="M.7,223.6c5.4,106.8,91,192.4,197.9,197.9v-197.8H.7q0,0,0,0Z"/>
        <path class="cls-4" d="M220,421.4c106.8-5.4,192.4-91,197.8-197.9h-197.8v197.9s0,0,0,0Z"/>
        <polygon class="cls-1" points="418.5 202.1 418.5 0 220 0 220 202.1 418.5 202.1 418.5 202.1"/>
        <path class="cls-5" d="M197.8,202.1C192.4,95.3,106.8,9.7,0,4.3v197.8h197.8Z"/>
      </g>
    </g>
  </g>
</svg>